<svg width="64" height="64" viewBox="0 0 64 64" fill="none" xmlns="http://www.w3.org/2000/svg">
<rect width="64" height="64" rx="32" fill="#2A69FE"/>
<path d="M46.6524 35.9663C46.0134 36.406 45.182 36.461 44.488 36.1105C43.691 35.6571 43.2581 34.5989 43.2581 33.1629V28.7448C43.2581 26.6217 42.4199 25.1169 41.0113 24.7047C38.6408 24.0107 36.8681 26.9171 36.1879 28.0096L31.9897 34.8051V26.5118C31.9416 24.6016 31.3232 23.4542 30.1414 23.1106C29.365 22.8839 28.1969 22.9732 27.0632 24.7047L17.6774 39.7728C16.4269 37.3885 15.7741 34.7295 15.7879 32.036C15.7879 22.9526 23.0437 15.5663 31.9897 15.5663C40.9357 15.5663 48.2121 22.9526 48.2121 32.036V32.0841C48.2121 32.0841 48.2121 32.1185 48.2121 32.1322C48.3014 33.8843 47.7311 35.286 46.6524 35.9663ZM51.84 32.036V31.9467C51.7644 20.8844 42.8871 11.904 31.9897 11.904C21.0923 11.904 12.16 20.9325 12.16 32.036C12.16 43.1396 21.0511 52.1681 31.9897 52.1681C37.0055 52.1681 41.829 50.2442 45.4706 46.7949C46.2058 46.101 46.247 44.9466 45.5668 44.2046C44.9072 43.4762 43.7872 43.4213 43.052 44.0809L43.0451 44.0878C36.6207 50.1823 26.4723 49.9144 20.3777 43.49C20.2266 43.332 20.0823 43.1739 19.938 43.009L28.3824 29.4251V35.6914C28.3824 38.7009 29.5505 39.6766 30.5262 39.9652C31.5019 40.2538 33.0066 40.0545 34.5732 37.5054L39.2455 29.9473C39.3898 29.7068 39.5272 29.4938 39.6577 29.3151V33.156C39.6577 35.9731 40.7846 38.2199 42.7703 39.333C44.6048 40.3225 46.831 40.2331 48.5831 39.0994C50.7613 37.684 51.9499 35.1211 51.8263 32.036H51.84Z" fill="white"/>
</svg>
