<svg width="64" height="64" viewBox="0 0 64 64" fill="none" xmlns="http://www.w3.org/2000/svg">
<path d="M63.9997 31.8587C64.0276 38.1875 62.1783 44.3824 58.6855 49.6602C55.1928 54.9379 50.2135 59.0615 44.3772 61.5094C38.541 63.9573 32.1099 64.6196 25.8972 63.4126C19.6845 62.2057 13.9693 59.1836 9.47414 54.7285C4.97899 50.2734 1.90582 44.5854 0.643252 38.3838C-0.61932 32.1822 -0.0145972 25.7455 2.38095 19.8875C4.7765 14.0296 8.85529 9.01355 14.1016 5.47367C19.3478 1.93379 25.526 0.0290503 31.8547 0.000315183C40.342 -0.0373262 48.4966 3.29794 54.5249 9.27247C60.5532 15.247 63.9613 23.3714 63.9997 31.8587Z" fill="#8DC63F"/>
<path d="M61.589 31.8654C61.6156 37.7176 59.9063 43.4462 56.6771 48.3268C53.448 53.2075 48.8441 57.021 43.4477 59.2851C38.0512 61.5492 32.1046 62.1623 26.3597 61.0467C20.6148 59.9312 15.3297 57.1371 11.1728 53.0179C7.01586 48.8987 4.17376 43.6393 3.0059 37.9049C1.83803 32.1704 2.39685 26.2184 4.61168 20.8015C6.82652 15.3846 10.5979 10.7462 15.4489 7.47271C20.2999 4.19923 26.0127 2.43775 31.8648 2.41101C35.7506 2.39326 39.6017 3.14105 43.1985 4.61167C46.7952 6.0823 50.0671 8.24696 52.8272 10.9821C55.5874 13.7172 57.7818 16.9691 59.2851 20.5523C60.7885 24.1355 61.5713 27.9797 61.589 31.8654Z" fill="#F9E988"/>
<path d="M32.5392 4.32948C34.4203 3.99369 36.346 3.99369 38.2271 4.32948C40.1262 4.63042 41.9619 5.24573 43.6587 6.15015C45.3445 7.07735 46.8045 8.33496 48.2543 9.52177C49.704 10.7086 51.1505 11.9089 52.5261 13.2305C53.9288 14.53 55.1532 16.0095 56.1674 17.6305C57.2132 19.2405 58.0696 20.9658 58.7197 22.7722C59.9847 26.3803 60.3447 30.2436 59.7683 34.0233H59.5795C59.0242 30.4124 58.0954 26.8689 56.808 23.4499C56.1911 21.7591 55.4647 20.1102 54.6333 18.5139C53.7597 16.9221 52.7984 15.38 51.754 13.8947C50.6886 12.3914 49.3832 11.0735 47.8901 9.99379C46.3897 8.92499 44.6635 8.23044 42.9912 7.57297C41.3188 6.91551 39.6465 6.26142 37.9101 5.75904C36.1738 5.25667 34.3969 4.88242 32.5459 4.51829L32.5392 4.32948Z" fill="white"/>
<path d="M47.0034 21.4135C44.8557 20.7897 42.6203 19.9097 40.3748 19.0196C40.2467 18.4532 39.7443 17.7485 38.7328 16.8887C37.2594 15.6109 34.4947 15.6446 32.1042 16.2144C29.4676 15.594 26.8614 15.3749 24.3495 15.975C3.90066 21.6056 15.499 35.3719 7.98706 49.1956C9.05586 51.4613 20.5767 64.705 37.2459 61.1412C37.2459 61.1412 31.5479 47.4423 44.4106 40.8677C54.8458 35.5169 62.3881 25.6111 47.0034 21.4135Z" fill="#8BC53F"/>
<path d="M49.5287 30.419C49.5307 30.6647 49.4598 30.9055 49.3248 31.1107C49.1898 31.316 48.997 31.4766 48.7706 31.5722C48.5443 31.6678 48.2947 31.694 48.0534 31.6475C47.8122 31.6011 47.5901 31.484 47.4155 31.3113C47.2408 31.1385 47.1214 30.9177 47.0723 30.677C47.0232 30.4363 47.0467 30.1864 47.1398 29.959C47.2329 29.7317 47.3914 29.5371 47.5952 29.3999C47.799 29.2627 48.0389 29.1891 48.2846 29.1884C48.4471 29.1875 48.6082 29.2186 48.7587 29.28C48.9091 29.3414 49.046 29.4318 49.1616 29.5461C49.2771 29.6603 49.369 29.7962 49.432 29.946C49.495 30.0958 49.5279 30.2565 49.5287 30.419Z" fill="white"/>
<path d="M32.1042 16.2077C33.5945 16.3156 38.9857 18.0756 40.3748 19.0196C39.2251 15.648 35.3174 15.2097 32.1042 16.2077Z" fill="#009345"/>
<path d="M33.5237 24.7109C33.5237 25.8445 33.1875 26.9527 32.5577 27.8953C31.9279 28.8378 31.0327 29.5725 29.9854 30.0063C28.938 30.4401 27.7856 30.5536 26.6737 30.3325C25.5619 30.1113 24.5406 29.5654 23.739 28.7638C22.9374 27.9622 22.3915 26.9409 22.1703 25.8291C21.9491 24.7172 22.0626 23.5648 22.4965 22.5174C22.9303 21.4701 23.6649 20.5749 24.6075 19.9451C25.5501 19.3153 26.6583 18.9791 27.7919 18.9791C29.3121 18.9791 30.77 19.583 31.8449 20.6579C32.9198 21.7328 33.5237 23.1907 33.5237 24.7109Z" fill="white"/>
<path d="M31.8278 24.7614C31.8284 25.5578 31.5929 26.3365 31.151 26.9989C30.709 27.6614 30.0805 28.1779 29.345 28.4831C28.6094 28.7883 27.7999 28.8685 27.0188 28.7136C26.2376 28.5586 25.52 28.1755 24.9566 27.6126C24.3933 27.0497 24.0096 26.3324 23.854 25.5514C23.6983 24.7704 23.7779 23.9608 24.0825 23.225C24.3871 22.4892 24.903 21.8603 25.5651 21.4178C26.2272 20.9753 27.0057 20.7391 27.8021 20.7391C28.8689 20.74 29.8918 21.164 30.6465 21.918C31.4012 22.672 31.826 23.6946 31.8278 24.7614Z" fill="#58595B"/>
<path d="M54.1647 32.941C49.5288 36.2081 44.2555 38.6727 36.7773 38.6727C33.2776 38.6727 32.5695 34.964 30.2566 36.7779C29.0597 37.7186 24.862 39.8124 21.5073 39.664C18.1525 39.5156 12.7411 37.5433 11.2407 30.4123C10.6439 37.5433 10.3371 42.7962 7.66003 48.8179C12.9939 57.3582 25.7083 63.943 37.246 61.1108C36.0086 52.4525 43.5745 43.9696 47.8396 39.6303C49.4512 37.9883 52.5598 35.3045 54.1647 32.9275V32.941Z" fill="#8BC53F"/>
<path d="M53.9827 33.1568C52.5057 34.427 50.8578 35.4836 49.0871 36.2957C47.3221 37.1344 45.4821 37.8049 43.5914 38.2985C41.7033 38.7874 39.7275 39.1549 37.7281 38.9728C35.7287 38.7907 33.6822 38.1097 32.3639 36.6127L32.4279 36.5385C34.0598 37.5938 35.9243 37.9647 37.7854 38.0186C39.675 38.0735 41.5648 37.9163 43.4194 37.55C45.293 37.1595 47.1261 36.5951 48.8949 35.8642C50.6923 35.1778 52.3845 34.2426 53.922 33.086L53.9827 33.1568Z" fill="#58595B"/>
</svg>
